<svg id="Layer_1" data-name="Layer 1" xmlns="http://www.w3.org/2000/svg" viewBox="0 0 261.41 263.34"><title>enso</title><path d="M230.36,44.89c-4.19-3-8.45-5.88-12.89-8.49a130.21,130.21,0,0,0-17.65-8.7,134.1,134.1,0,0,0-39.15-9.41A129.77,129.77,0,0,0,78.39,39.42,115.24,115.24,0,0,0,61.11,53.3,170.66,170.66,0,0,0,49.34,66.06a132.77,132.77,0,0,0-22.12,39.11,135.27,135.27,0,0,0-7.71,37.71,132.08,132.08,0,0,0,3.36,38.32,129.54,129.54,0,0,0,38.45,65.47,129.82,129.82,0,0,0,27.09,19.22,135.65,135.65,0,0,0,19.43,8.41,131.46,131.46,0,0,0,61.9,5.39,131.78,131.78,0,0,0,100.19-76.16A127.44,127.44,0,0,0,280.37,163a119.36,119.36,0,0,0-.34-21.13,108.61,108.61,0,0,0-3.89-21,129.92,129.92,0,0,0-6.5-17.11c-1.25-2.74-2.53-5.43-4-8.08-1.58-2.82-3.4-5.55-5.22-8.21a57.16,57.16,0,0,0-10.2-11.26c1.29,1.86,2.57,3.64,3.73,5.55a60.79,60.79,0,0,1,3.52,6.92c2.28,4.93,4.11,10.06,6,15.12a156.05,156.05,0,0,1,5.8,19.72c.79,3.44,1.49,6.88,2,10.36s.71,7.08.87,10.65A101.8,101.8,0,0,1,271,165.87a116.63,116.63,0,0,1-5.3,21.3,121.83,121.83,0,0,1-56.51,66.62,119.32,119.32,0,0,1-82,11.89,113.78,113.78,0,0,1-39.36-16.24c-3.1-2-6.17-4.27-9.07-6.59-2.49-2-5-4.06-7.33-6.25a114.48,114.48,0,0,1-13.3-15A117.79,117.79,0,0,1,44.33,105.8a113,113,0,0,1,11-20,107,107,0,0,1,7-9.19c1.2-1.45,2.48-2.74,3.69-4.19.53-.54,1.11-1,1.65-1.57A118.38,118.38,0,0,1,97.9,47.92a110,110,0,0,1,39.15-11.81,112.84,112.84,0,0,1,42.6,3.64,122.55,122.55,0,0,1,33.18,15c2.36,1.54,4.64,3.15,6.92,4.77a9,9,0,0,0,13.8-10.48A9,9,0,0,0,230.36,44.89Z" transform="translate(-19.29 -17.85)" style="fill:#343434"/></svg>