<svg fill="none" height="30" viewBox="0 0 25 30" width="25" xmlns="http://www.w3.org/2000/svg" xmlns:xlink="http://www.w3.org/1999/xlink"><clipPath id="a"><path d="m0 0h24.2308v30h-24.2308z"/></clipPath><g clip-path="url(#a)"><path d="m3.07675.00010639c-1.69609 0-3.07675 1.39133361-3.07675 3.09925361v23.80134c0 1.708 1.38066 3.0993 3.07675 3.0993h18.07345c1.6961 0 3.0767-1.3913 3.0767-3.0993v-19.57132s.0484-.57309-.1986-1.13076c-.2316-.52274-.609-.88657-.609-.88657-.001-.00129-.0019-.00257-.0028-.00385l-4.4841-4.429126c-.0025-.002527-.005-.005028-.0075-.007503 0 0-.3828-.367102-.9503-.612338-.6683-.2887535-1.357-.25827182-1.357-.25827182l.0102-.00096118z" fill="#dc5858"/><path d="m3.07652 1.01819h13.55108c.0035.00003.0069.00003.0103 0 0 0 .5419.00529.9382.17656.3815.16485.652.41438.6538.41606 0 0 .0019.00192.0019.00192l4.4729 4.41879s.2694.28651.4001.58135c.1054.23798.1119.67339.1119.67339-.0005.00719-.0008.01438-.001.02158v19.59296c0 1.1617-.9121 2.0812-2.0658 2.0812h-18.07338c-1.15362 0-2.06578-.9194-2.06578-2.0812v-23.80138c0-1.16175.91216-2.08119 2.06578-2.08119z" fill="#f5f5f5"/><path d="m6.0492 17.8618c-.69558-.7005.05699-1.663 2.09935-2.6851l1.28508-.6431.50065-1.1031c.27532-.6067.68632-1.5966.91322-2.1998l.4126-1.0968-.2843-.81161c-.3496-.998-.4743-2.49774-.2525-3.03702.3005-.73046 1.2847-.65552 1.6743.1275.3043.61153.2732 1.719-.0875 3.11568l-.2957 1.14505.2604.4453c.1433.2449.5618.8264.93 1.2922l.692.8669.8611-.1132c2.7357-.3595 3.6726.2515 3.6726 1.1275 0 1.1056-2.148 1.1969-3.9518-.079-.4059-.287-.6846-.5722-.6846-.5722s-1.1301.2317-1.6864.3827c-.5743.1559-.8609.2535-1.7021.5394 0 0-.2952.4317-.48752.7455-.71558 1.1675-1.55109 2.135-2.14779 2.4871-.66808.3943-1.36845.4212-1.72109.0661zm1.09161-.3927c.39099-.2434 1.18238-1.1859 1.7302-2.0608l.22179-.3541-1.00991.5113c-1.5598.7897-2.27337 1.5341-1.90232 1.9843.20845.2529.45781.232.96024-.0807zm10.13179-2.8639c.3824-.2698.3269-.8133-.1055-1.0325-.3364-.1706-.6076-.2056-1.4817-.1926-.5372.0369-1.4009.1459-1.5473.179 0 0 .4745.3303.6852.4517.2804.1613.9619.4607 1.4595.614.4908.1513.7747.1354.9898-.0196zm-4.0739-1.7051c-.2314-.245-.625-.7564-.8745-1.1363-.3264-.4311-.4901-.7352-.4901-.7352s-.2386.7727-.4343 1.2377l-.6106 1.5198-.177.3448s.9412-.3108 1.42-.4367c.5072-.1334 1.5366-.3373 1.5366-.3373zm-1.3128-5.30177c.059-.49889.0841-.99703-.0751-1.24824-.4415-.48603-.9744-.08072-.8841 1.0748.0303.38872.1262 1.05323.2544 1.4628l.2332.74467.164-.56086c.0902-.30847.2287-.9714.3076-1.47317z" fill="#dc5858"/><g fill="#2c2c2c"><path d="m7.23242 21.1056h1.1293c.36084 0 .65374.0348.87871.1043.22497.0673.4143.2187.56799.4542.15369.2333.23058.5148.23058.8445 0 .3028-.06241.563-.18714.7806-.12474.2175-.29291.3746-.50451.471-.20938.0965-.53235.1447-.96893.1447h-.39091v1.7933h-.75509zm.75509.5888v1.6015h.37421c.33411 0 .56465-.0628.69161-.1884.12919-.1256.19378-.3297.19378-.6124 0-.2108-.04232-.3813-.12696-.5114-.08464-.1323-.17819-.2131-.28065-.2422-.10024-.0314-.2595-.0471-.47778-.0471z"/><path d="m10.6172 21.1056h1.0257c.4967 0 .8932.0886 1.1894.2658.2985.1772.5235.4407.675.7907.1536.3499.2305.7379.2305 1.1641 0 .4486-.0691.849-.2072 1.2011-.1358.3499-.3452.6326-.6281.8479-.2806.2153-.6816.323-1.2028.323h-1.0825zm.7551.609v3.3746h.314c.4388 0 .7574-.1525.9556-.4576.1982-.3073.2974-.7166.2974-1.228 0-1.126-.4177-1.689-1.253-1.689z"/><path d="m14.4624 21.1056h2.5326v.609h-1.7775v1.3727h1.4233v.609h-1.4233v2.0019h-.7551z"/></g></g></svg>