<svg fill="none" height="30" viewBox="0 0 30 30" width="30" xmlns="http://www.w3.org/2000/svg"><path clip-rule="evenodd" d="m4.09091 0c-2.25919 0-4.09091 1.83172-4.09091 4.09091v21.81819c0 2.2591 1.83172 4.0909 4.09091 4.0909h21.81819c2.2591 0 4.0909-1.8318 4.0909-4.0909v-21.81819c0-2.25919-1.8318-4.09091-4.0909-4.09091zm21.81819 2.72727h-21.81819c-.75307 0-1.36364.61057-1.36364 1.36364v20.22749l5.90066-6.884c.50171-.586 1.38857-.6393 1.95677-.118l7.1426 6.5472-2.0455-4.7727 5.9182-6.5099c.4998-.55 1.3478-.5986 1.9069-.1092l3.7658 3.2952v-11.67609c0-.75307-.6106-1.36364-1.3636-1.36364zm-13.6364 6.13637c0 1.88296-1.5261 3.40906-3.40906 3.40906-1.88299 0-3.40909-1.5261-3.40909-3.40906 0-1.88299 1.5261-3.40909 3.40909-3.40909 1.88296 0 3.40906 1.5261 3.40906 3.40909z" fill="#dc5858" fill-rule="evenodd"/></svg>